<?xml version="1.0" standalone="no"?>
<!DOCTYPE svg PUBLIC "-//W3C//DTD SVG 20010904//EN"
 "http://www.w3.org/TR/2001/REC-SVG-20010904/DTD/svg10.dtd">
<svg version="1.0" xmlns="http://www.w3.org/2000/svg"
 width="4096.000000pt" height="4096.000000pt" viewBox="0 0 4096.000000 4096.000000"
 preserveAspectRatio="xMidYMid meet">
<metadata>
Created by potrace 1.14, written by Peter Selinger 2001-2017
</metadata>
<g transform="translate(0.000000,4096.000000) scale(0.100000,-0.100000)"
fill="#000000" stroke="none">
<path d="M0 20480 l0 -20480 20480 0 20480 0 0 20480 0 20480 -20480 0 -20480
0 0 -20480z m21360 15641 c63 -5 185 -14 270 -20 85 -6 211 -18 280 -26 776
-89 836 -97 1300 -180 228 -40 360 -67 765 -155 139 -30 411 -100 508 -130 50
-17 98 -30 105 -30 8 0 28 -6 45 -14 18 -7 75 -25 127 -40 150 -42 227 -66
335 -103 55 -19 134 -45 175 -59 67 -22 148 -51 250 -89 19 -8 67 -26 105 -40
39 -15 111 -42 160 -62 50 -19 104 -39 120 -45 31 -11 133 -54 223 -94 29 -13
55 -24 57 -24 3 0 42 -18 87 -39 46 -21 128 -60 183 -86 116 -54 521 -257 580
-290 22 -12 72 -39 110 -60 140 -76 257 -142 485 -278 47 -28 87 -52 89 -53
11 -9 -14 -56 -53 -104 -25 -30 -54 -66 -63 -79 -10 -13 -32 -40 -48 -60 -17
-20 -48 -58 -70 -86 -42 -53 -214 -254 -252 -294 -13 -13 -32 -39 -44 -57
l-20 -33 -57 31 c-31 16 -95 54 -142 83 -47 28 -166 96 -265 149 -99 53 -189
102 -199 107 -74 42 -538 269 -550 269 -2 0 -42 17 -88 39 -46 21 -117 53
-158 71 -41 18 -88 38 -105 46 -31 13 -197 79 -300 119 -133 51 -541 193 -620
215 -16 4 -104 31 -195 60 -91 28 -183 55 -205 60 -22 4 -121 29 -220 55 -99
26 -227 58 -285 71 -58 13 -136 31 -175 39 -131 30 -500 106 -555 115 -30 5
-102 16 -160 24 -58 9 -161 25 -230 36 -69 11 -183 26 -255 34 -71 8 -200 24
-285 35 -507 65 -1144 96 -1800 87 -522 -7 -591 -10 -950 -31 -345 -22 -831
-78 -1210 -140 -85 -14 -195 -32 -245 -40 -97 -15 -456 -84 -570 -110 -38 -8
-124 -26 -190 -40 -66 -14 -196 -45 -290 -71 -93 -25 -187 -49 -208 -55 -21
-5 -84 -23 -140 -40 -56 -16 -142 -41 -192 -55 -126 -36 -404 -123 -424 -133
-9 -5 -72 -28 -141 -51 -420 -142 -960 -355 -1300 -512 -42 -20 -86 -39 -99
-43 -68 -21 -926 -448 -1151 -572 -14 -8 -56 -31 -95 -52 -38 -20 -117 -64
-175 -97 -58 -33 -112 -63 -120 -67 -8 -4 -33 -18 -55 -32 -22 -14 -47 -28
-55 -32 -8 -4 -53 -31 -99 -61 -47 -30 -92 -57 -100 -61 -9 -3 -50 -28 -91
-55 -237 -155 -301 -196 -309 -196 -5 0 -11 -3 -13 -7 -2 -5 -73 -55 -158
-112 -85 -57 -177 -121 -205 -141 -27 -21 -108 -80 -178 -131 -71 -52 -152
-112 -182 -134 -271 -205 -407 -314 -580 -465 -60 -53 -141 -123 -180 -155
-243 -204 -880 -835 -1150 -1140 -38 -43 -121 -135 -184 -204 -62 -69 -188
-219 -280 -334 -91 -116 -209 -263 -261 -327 -52 -65 -140 -179 -195 -254 -55
-76 -124 -168 -153 -206 -28 -37 -52 -72 -52 -76 0 -4 -10 -18 -22 -31 -52
-56 -362 -516 -571 -850 -79 -125 -85 -135 -167 -283 -26 -47 -62 -109 -79
-138 -152 -257 -499 -956 -658 -1327 -36 -82 -71 -163 -78 -180 -21 -44 -136
-341 -220 -565 -86 -232 -194 -550 -265 -785 -28 -93 -62 -204 -75 -245 -13
-41 -35 -118 -49 -170 -13 -52 -33 -129 -44 -170 -11 -41 -27 -109 -36 -150
-9 -41 -26 -111 -36 -155 -10 -44 -24 -102 -29 -130 -6 -27 -20 -88 -31 -135
-11 -47 -34 -152 -50 -235 -16 -82 -39 -195 -50 -250 -34 -167 -103 -642 -145
-1005 -80 -681 -99 -1011 -99 -1715 0 -536 11 -822 45 -1160 5 -55 14 -149 19
-210 5 -60 18 -182 29 -270 11 -88 27 -216 35 -285 9 -69 25 -179 36 -245 11
-66 31 -192 45 -280 58 -361 180 -913 295 -1330 4 -16 17 -64 28 -105 19 -70
42 -154 78 -275 71 -245 204 -650 302 -920 63 -173 214 -545 247 -608 8 -16
15 -33 15 -38 0 -41 424 -931 581 -1219 339 -623 856 -1435 1201 -1888 310
-406 539 -690 749 -927 14 -16 62 -70 105 -120 354 -406 1013 -1048 1423
-1388 842 -699 1583 -1213 2391 -1660 514 -284 1072 -559 1440 -709 310 -126
521 -209 626 -247 60 -22 147 -53 194 -70 230 -85 682 -227 990 -311 36 -9
101 -27 145 -39 148 -41 234 -64 345 -90 58 -13 271 -59 335 -72 28 -6 102
-21 165 -34 156 -32 305 -59 555 -100 116 -19 235 -39 265 -44 268 -50 647
-90 1160 -126 124 -8 254 -17 290 -20 36 -3 281 -8 545 -11 828 -11 1553 38
2350 157 110 17 259 39 330 49 117 17 524 96 775 150 136 29 593 145 730 185
251 73 584 177 750 235 96 34 200 70 230 79 105 35 453 166 560 211 194 82
415 177 465 200 33 15 83 37 110 50 111 49 171 78 417 201 225 113 595 307
683 359 17 10 50 29 75 42 271 150 677 401 930 575 214 148 300 207 362 251
119 84 360 264 478 357 63 50 154 121 203 158 132 102 639 544 822 716 459
435 676 662 1148 1205 192 220 554 677 722 912 113 158 163 230 272 394 56 85
121 182 143 215 57 83 160 244 160 250 0 2 13 23 29 47 33 50 213 344 246 403
28 50 188 341 228 415 16 30 44 82 62 115 89 163 228 438 317 625 62 131 62
132 170 375 44 99 85 194 93 210 37 83 148 370 242 625 53 143 148 434 197
600 14 47 36 119 50 160 29 90 121 399 135 455 5 22 36 148 69 280 65 255 144
601 167 725 8 41 26 136 40 210 67 349 154 1009 190 1430 42 494 48 619 49
1110 1 494 -6 795 -25 1050 -20 286 -56 669 -80 855 -5 44 -16 132 -24 195
-61 485 -186 1128 -317 1630 -16 63 -38 149 -47 190 -23 95 -139 481 -186 620
-19 58 -54 161 -76 230 -41 123 -112 327 -149 425 -11 28 -33 88 -50 135 -17
47 -35 94 -40 105 -5 11 -34 81 -64 155 -57 141 -126 305 -210 493 -14 32 -26
59 -26 61 0 2 -17 42 -39 88 -21 45 -50 108 -64 138 -42 93 -264 540 -315 635
-252 471 -489 865 -691 1145 -42 58 -90 125 -106 150 -17 25 -68 97 -115 161
-47 64 -109 149 -137 189 -29 39 -53 76 -53 82 0 6 10 20 23 32 12 11 96 90
187 175 91 84 216 201 279 260 62 58 120 106 129 106 39 0 409 -489 677 -896
212 -321 215 -326 215 -332 0 -3 27 -49 59 -104 95 -156 231 -392 269 -463 19
-36 42 -78 52 -95 22 -37 154 -291 191 -365 95 -195 189 -390 189 -394 0 -2
27 -61 60 -131 33 -70 60 -130 60 -133 0 -4 11 -29 24 -57 51 -108 66 -142 66
-150 0 -4 6 -21 14 -38 31 -69 76 -177 111 -267 142 -363 234 -607 275 -725
52 -150 111 -331 135 -410 14 -49 37 -121 49 -160 30 -90 53 -171 61 -215 4
-19 11 -39 15 -45 4 -5 12 -30 18 -55 6 -25 22 -85 37 -135 36 -123 64 -231
75 -285 5 -25 14 -61 20 -80 20 -67 111 -470 139 -625 7 -33 20 -103 31 -155
33 -162 49 -251 65 -350 8 -52 24 -151 35 -220 188 -1152 228 -2441 114 -3700
-72 -802 -308 -2062 -520 -2786 -14 -49 -35 -120 -46 -159 -26 -94 -73 -248
-113 -370 -18 -55 -47 -143 -63 -195 -37 -119 -179 -511 -265 -735 -311 -807
-745 -1682 -1227 -2475 -57 -93 -143 -231 -187 -300 -30 -47 -79 -123 -108
-170 -81 -128 -212 -321 -285 -420 -36 -49 -103 -144 -150 -211 -93 -134 -348
-478 -426 -576 -27 -33 -56 -71 -64 -83 -82 -120 -437 -539 -729 -860 -113
-125 -576 -596 -712 -725 -264 -251 -609 -554 -853 -750 -180 -144 -226 -179
-411 -319 -306 -229 -554 -407 -810 -579 -88 -59 -189 -128 -225 -153 -36 -24
-105 -68 -154 -97 -48 -29 -105 -62 -125 -74 -20 -13 -63 -39 -96 -58 -33 -20
-69 -41 -79 -48 -118 -73 -167 -102 -266 -157 -63 -35 -138 -76 -166 -91 -28
-14 -80 -43 -115 -62 -35 -20 -102 -56 -149 -82 -92 -49 -666 -335 -673 -335
-3 0 -75 -34 -162 -75 -86 -41 -159 -75 -161 -75 -2 0 -86 -36 -187 -81 -167
-74 -458 -191 -682 -274 -49 -18 -121 -45 -160 -59 -104 -39 -379 -134 -465
-160 -41 -13 -129 -40 -195 -61 -66 -20 -149 -45 -185 -55 -36 -10 -132 -39
-215 -64 -82 -26 -206 -60 -275 -76 -69 -17 -179 -44 -245 -61 -66 -17 -140
-34 -165 -39 -25 -4 -121 -24 -215 -45 -93 -20 -192 -40 -220 -45 -27 -5 -106
-20 -175 -34 -69 -14 -165 -32 -215 -40 -49 -8 -144 -24 -210 -36 -494 -85
-998 -140 -1650 -182 -311 -20 -1547 -16 -1875 6 -389 26 -796 66 -1030 101
-52 8 -169 26 -260 40 -91 13 -203 31 -250 40 -47 8 -139 24 -205 35 -66 11
-138 25 -160 30 -22 5 -137 28 -255 51 -118 22 -242 47 -275 54 -180 42 -286
67 -335 80 -30 8 -111 28 -180 45 -199 49 -349 89 -430 114 -41 13 -93 28
-115 34 -53 15 -304 95 -380 121 -33 12 -134 45 -225 75 -394 129 -1171 434
-1255 492 -11 8 -25 14 -32 14 -7 0 -45 16 -85 36 -40 19 -93 44 -118 54 -159
65 -780 374 -950 474 -32 19 -67 37 -79 41 -11 3 -21 11 -21 16 0 5 -5 9 -11
9 -6 0 -45 20 -86 45 -40 25 -76 45 -79 45 -2 0 -21 11 -42 24 -20 13 -98 58
-172 101 -293 169 -728 448 -905 580 -33 25 -69 49 -80 55 -11 5 -31 18 -45
29 -14 11 -151 111 -305 222 -449 325 -551 405 -919 723 -268 230 -292 252
-481 427 -430 399 -850 846 -1311 1395 -118 142 -536 693 -700 925 -397 561
-868 1312 -1089 1734 -37 72 -71 135 -75 140 -13 16 -283 555 -309 615 -13 30
-50 108 -82 173 -32 65 -115 252 -184 415 -70 163 -137 322 -150 352 -62 145
-212 550 -276 745 -16 50 -34 99 -39 110 -16 34 -187 587 -224 725 -139 510
-168 627 -210 820 -9 41 -29 134 -45 205 -108 483 -226 1284 -261 1760 -6 77
-12 156 -15 175 -3 19 -9 109 -15 200 -52 862 -41 1688 31 2455 20 215 104
845 135 1020 59 330 116 617 175 890 17 77 37 169 44 205 20 100 101 423 134
535 16 55 41 145 56 200 15 55 31 111 35 125 13 37 89 288 101 335 6 22 15 49
20 60 4 11 15 43 22 70 48 168 387 1061 417 1100 4 6 11 21 15 35 4 14 16 43
26 65 10 22 30 69 44 105 15 36 42 98 61 138 19 41 34 76 34 79 0 7 382 774
433 868 23 44 53 100 67 125 40 74 278 490 326 568 109 181 382 600 507 777
31 44 73 105 94 135 203 293 721 968 922 1200 31 36 69 81 85 100 30 37 136
155 246 275 36 39 103 113 150 165 149 167 564 590 720 735 276 257 671 597
945 815 72 57 149 119 172 137 381 304 1046 748 1575 1052 59 33 109 61 111
61 3 0 35 18 71 40 36 22 68 40 72 40 3 0 18 8 32 18 68 47 1003 532 1027 532
2 0 53 24 112 53 230 113 890 402 998 437 22 7 45 16 50 20 6 4 57 24 115 45
58 20 182 66 275 100 307 113 633 223 800 269 50 14 157 45 239 70 82 25 194
57 250 71 55 14 115 29 131 34 17 5 91 23 165 40 74 18 149 36 165 40 55 17
357 77 720 145 575 107 1435 205 2080 236 215 11 1452 4 1605 -9z m9232 -1816
c252 -30 458 -84 713 -188 41 -17 295 -146 309 -158 6 -5 45 -31 86 -58 131
-86 320 -251 430 -377 223 -253 346 -446 478 -744 273 -623 251 -1422 -58
-2035 -92 -183 -107 -208 -239 -387 -103 -139 -305 -355 -436 -465 -219 -184
-463 -318 -755 -416 -369 -123 -890 -151 -1265 -68 -22 5 -65 14 -95 21 -148
31 -302 88 -470 173 -190 95 -187 94 -275 152 -125 82 -287 214 -374 304 -161
168 -320 359 -339 410 -3 9 -22 40 -42 71 -87 130 -193 364 -251 553 -91 297
-126 553 -116 847 12 324 56 534 173 825 41 101 114 252 153 316 9 15 35 57
58 95 165 275 449 562 748 756 319 208 715 345 1100 381 103 10 352 5 467 -8z
m-9813 -393 c40 -20 81 -89 81 -136 0 -17 -13 -54 -29 -82 -33 -57 -77 -84
-137 -84 -32 0 -45 7 -85 49 -62 64 -73 117 -39 187 13 25 37 54 54 65 39 24
110 25 155 1z m-3016 -320 c23 -10 63 -40 89 -66 78 -78 99 -186 54 -283 -62
-133 -209 -201 -350 -162 -47 13 -133 95 -160 154 -13 28 -19 63 -20 115 0 66
3 82 28 125 43 73 98 120 159 136 48 12 152 2 200 -19z m3342 -1407 c160 -14
299 -28 309 -31 10 -4 67 -12 125 -19 201 -26 424 -65 726 -130 66 -14 140
-30 165 -35 51 -11 345 -86 465 -120 44 -12 96 -25 115 -29 168 -35 206 -64
325 -253 43 -68 113 -177 157 -244 43 -66 88 -145 99 -175 11 -30 29 -70 39
-89 16 -31 90 -259 135 -415 9 -33 25 -87 35 -120 54 -179 138 -615 169 -880
55 -467 53 -1492 -5 -1980 -8 -66 -21 -176 -29 -245 -29 -256 -114 -761 -165
-990 -17 -74 -46 -211 -65 -304 -19 -93 -42 -192 -50 -220 -57 -205 -129 -463
-160 -581 -56 -211 -130 -459 -197 -660 -55 -164 -83 -245 -153 -435 -14 -36
-47 -129 -74 -206 -48 -137 -92 -245 -229 -559 -36 -82 -84 -195 -107 -250
-54 -128 -238 -511 -439 -915 -156 -312 -311 -597 -433 -795 -31 -49 -83 -139
-117 -200 -67 -118 -111 -190 -250 -403 -49 -75 -99 -153 -111 -173 -96 -169
-555 -835 -712 -1035 -54 -69 -146 -191 -207 -274 -35 -47 -155 -198 -224
-280 -465 -555 -897 -1018 -1327 -1425 -364 -344 -532 -498 -612 -566 -126
-105 -306 -261 -318 -275 -10 -11 -342 -277 -505 -403 -94 -74 -331 -247 -449
-329 -42 -30 -80 -59 -86 -65 -5 -7 -68 -52 -140 -100 -473 -319 -611 -410
-735 -483 -36 -21 -121 -72 -190 -114 -143 -88 -189 -114 -350 -200 -150 -79
-564 -286 -660 -329 -41 -18 -92 -42 -113 -52 -21 -10 -86 -37 -145 -60 -59
-22 -163 -62 -232 -89 -69 -27 -156 -58 -195 -70 -38 -12 -97 -33 -130 -46
-66 -26 -197 -68 -260 -82 -22 -6 -92 -24 -155 -42 -155 -43 -305 -76 -570
-124 -361 -66 -785 -99 -1262 -97 -201 0 -285 4 -340 16 -127 27 -272 57 -313
65 -112 21 -295 64 -397 94 -29 8 -120 32 -203 52 -235 56 -246 61 -280 106
-64 87 -100 138 -192 278 -137 206 -150 227 -250 405 -132 236 -328 637 -377
775 -7 19 -39 103 -71 185 -141 368 -241 698 -375 1240 -222 901 -309 1757
-297 2945 6 618 25 906 92 1426 31 237 67 453 140 839 41 212 168 715 241 950
13 44 36 118 50 165 69 227 126 389 230 655 186 473 195 494 261 633 35 73 63
135 63 137 0 19 224 467 317 635 11 19 50 91 88 160 37 69 89 161 115 205 26
44 56 96 67 115 30 53 160 266 211 345 498 772 1000 1398 1674 2087 204 208
622 593 803 738 44 36 89 73 100 83 11 11 88 73 170 138 228 180 245 193 315
243 36 25 112 79 170 120 58 41 125 89 150 106 45 31 270 181 315 210 13 8
102 65 197 126 174 112 388 237 528 309 41 21 104 55 140 76 36 20 165 86 285
146 198 97 270 131 509 242 157 73 562 242 701 293 656 238 1198 388 1910 528
259 51 575 92 957 125 382 32 401 33 888 29 344 -3 465 -8 705 -29z m3525
-1097 c12 -21 16 -38 11 -38 -6 0 -11 3 -11 8 0 4 -13 22 -30 40 -16 18 -30
37 -30 43 0 19 39 -16 60 -53z m190 -58 c8 -5 12 -11 10 -14 -3 -2 -14 2 -24
10 -22 15 -10 19 14 4z m-105 -50 c3 -5 2 -10 -4 -10 -5 0 -13 5 -16 10 -3 6
-2 10 4 10 5 0 13 -4 16 -10z m395 -50 c8 -5 12 -11 9 -14 -3 -3 -14 1 -25 9
-21 16 -8 20 16 5z m-281 -77 c6 -14 28 -45 48 -69 43 -54 33 -58 -14 -6 -42
45 -67 81 -69 98 -3 21 23 5 35 -23z m487 -22 c32 -15 89 -43 127 -60 37 -17
67 -36 67 -41 0 -13 -6 -13 -28 0 -9 5 -46 21 -81 35 -66 28 -135 67 -146 85
-9 14 -5 13 61 -19z m-406 -26 c0 -8 -2 -15 -4 -15 -2 0 -6 7 -10 15 -3 8 -1
15 4 15 6 0 10 -7 10 -15z m35 -52 c14 -15 25 -33 25 -39 0 -6 28 -42 63 -80
64 -69 141 -183 131 -193 -5 -6 -38 30 -166 182 -60 70 -83 105 -84 127 -1 17
0 30 2 30 2 0 15 -12 29 -27z m133 -59 c-4 -3 -12 5 -18 18 -12 22 -12 22 6 6
10 -10 15 -20 12 -24z m532 1 l25 -15 -30 6 c-33 7 -58 24 -34 24 7 -1 25 -7
39 -15z m-463 -45 c39 -48 38 -66 0 -25 -20 22 -37 43 -37 47 0 15 15 7 37
-22z m666 -69 c21 -20 33 -37 28 -39 -16 -5 -51 17 -51 33 0 8 -6 12 -14 9
-13 -5 -76 47 -76 61 0 12 79 -33 113 -64z m165 -82 c86 -41 122 -67 122 -90
0 -8 -6 -7 -17 3 -10 9 -52 32 -93 53 -80 39 -133 74 -112 75 7 0 52 -18 100
-41z m-753 -59 c36 -40 57 -78 47 -84 -10 -6 -92 116 -92 136 0 7 6 4 12 -7 6
-11 21 -31 33 -45z m126 -170 c38 -38 76 -85 84 -104 8 -19 19 -37 25 -41 5
-3 10 -14 10 -22 0 -19 -99 85 -100 104 0 6 -22 36 -50 66 -47 52 -57 67 -44
67 3 0 37 -31 75 -70z m957 43 c15 -10 59 -41 97 -69 39 -28 93 -64 120 -79
67 -39 115 -77 115 -92 0 -7 9 -13 20 -13 11 0 20 -4 20 -10 0 -5 4 -10 9 -10
6 0 26 -10 46 -21 27 -16 33 -25 25 -33 -9 -8 -18 -3 -35 18 -12 16 -28 25
-34 22 -6 -4 -11 -2 -11 3 0 6 -4 11 -9 11 -4 0 -59 34 -122 75 -62 41 -117
75 -122 75 -10 0 -71 42 -75 53 -2 4 -9 7 -15 7 -7 0 -25 11 -42 25 -29 23
-29 24 -5 19 l25 -6 -24 21 c-28 25 -20 27 17 4z m-14803 -85 c61 -23 132 -85
160 -137 45 -88 27 -203 -45 -290 -91 -110 -201 -132 -327 -66 -42 21 -100 88
-125 144 -16 34 -19 59 -16 120 3 67 7 81 36 121 90 123 190 157 317 108z
m14023 -140 c17 -28 32 -54 32 -60 0 -5 9 -18 19 -29 10 -11 21 -32 24 -45 l4
-25 -27 26 c-22 21 -100 161 -100 180 0 16 19 -3 48 -47z m227 -288 c23 -36
51 -74 62 -85 10 -11 22 -28 26 -37 3 -10 13 -18 21 -18 14 0 63 -87 58 -102
-1 -5 2 -8 7 -8 10 0 74 -90 68 -96 -2 -2 -36 38 -77 89 -40 50 -86 106 -101
122 -15 17 -36 46 -47 66 -41 75 -48 84 -69 102 -13 10 -23 24 -23 32 0 7 -7
18 -15 25 -8 7 -15 19 -15 27 0 20 54 -40 105 -117z m1426 -67 c13 -16 12 -17
-3 -4 -17 13 -22 21 -14 21 2 0 10 -8 17 -17z m109 -115 c0 -6 -6 -5 -15 2 -8
7 -15 14 -15 16 0 2 7 1 15 -2 8 -4 15 -11 15 -16z m80 -53 c0 -6 32 -31 70
-56 39 -24 93 -61 120 -81 27 -21 53 -38 58 -38 5 0 17 -10 28 -22 10 -12 13
-18 5 -13 -11 6 -13 4 -7 -10 6 -16 4 -16 -11 -4 -10 7 -31 25 -48 40 -16 15
-56 44 -89 65 -85 56 -83 55 -134 106 -26 25 -46 52 -44 58 5 13 52 -27 52
-45z m-1307 -175 c6 -24 3 -25 -17 -4 -9 8 -14 20 -10 25 8 13 21 3 27 -21z
m37 -61 c0 -6 -4 -7 -10 -4 -5 3 -10 11 -10 16 0 6 5 7 10 4 6 -3 10 -11 10
-16z m1704 -97 c7 -15 -2 -11 -67 37 -26 19 -47 42 -47 50 0 13 -2 13 -9 2 -5
-8 -11 -9 -15 -3 -3 6 0 12 6 15 14 4 123 -79 132 -101z m-1581 -3 c6 -23 -9
-16 -23 11 -8 16 -7 18 4 14 8 -3 16 -14 19 -25z m1647 -79 c0 -5 -2 -10 -4
-10 -3 0 -8 5 -11 10 -3 6 -1 10 4 10 6 0 11 -4 11 -10z m126 -98 c-4 -3 -14
2 -24 12 -16 18 -16 18 6 6 13 -6 21 -14 18 -18z m78 -59 c22 -14 34 -29 30
-33 -11 -11 -209 -43 -396 -65 -168 -19 -318 -40 -423 -60 -44 -8 -114 -19
-155 -24 -102 -12 -293 -39 -362 -51 -31 -6 -92 -13 -135 -17 l-79 -6 -36 43
c-20 23 -49 61 -64 84 -16 22 -35 47 -43 54 -11 9 -12 15 -3 24 8 8 15 8 27
-2 8 -7 15 -17 15 -22 0 -15 90 -125 116 -143 29 -19 65 -19 168 -1 45 8 99
17 121 20 144 18 349 48 460 69 72 14 155 28 185 32 30 3 93 13 139 21 46 8
123 14 172 14 48 0 98 4 111 9 13 5 43 11 67 15 61 8 74 23 33 38 -18 7 -32
18 -32 26 0 18 33 8 84 -25z m-2264 -317 c23 -43 30 -66 25 -85 l-7 -26 -17
24 -18 23 2 -38 c1 -39 -12 -74 -28 -74 -5 0 -6 19 -3 43 3 23 5 52 5 65 1 15
5 21 13 16 8 -5 9 -2 3 12 -9 21 -20 112 -12 104 3 -3 19 -32 37 -64z m-34
-238 c-1 -32 -6 -53 -14 -56 -9 -3 -11 9 -8 45 5 65 5 63 14 63 5 0 8 -23 8
-52z m-15 -135 c-5 -10 -9 -67 -10 -128 -2 -124 -9 -206 -18 -214 -7 -7 6 339
13 351 10 17 25 8 15 -9z m3026 -9 c-3 -3 -12 -4 -19 -1 -8 3 -5 6 6 6 11 1
17 -2 13 -5z m-2648 -90 c57 -85 62 -100 29 -82 -13 7 -24 14 -26 14 -1 1 -5
11 -7 24 -2 12 -9 28 -14 34 -13 15 -43 86 -37 86 2 0 27 -34 55 -76z m2377
58 c-3 -5 -31 -9 -63 -9 l-58 0 50 7 c76 11 77 11 71 2z m54 4 c0 -3 -4 -8
-10 -11 -5 -3 -10 -1 -10 4 0 6 5 11 10 11 6 0 10 -2 10 -4z m-457 -53 c-7 -2
-21 -2 -30 0 -10 3 -4 5 12 5 17 0 24 -2 18 -5z m-627 -99 c18 -15 18 -15 -5
-10 -14 3 -32 0 -40 -7 -12 -10 -13 -9 -2 11 14 26 21 27 47 6z m-157 -18 c-2
-3 -32 -6 -67 -8 -51 -2 -62 -6 -62 -20 0 -13 -7 -17 -25 -16 -14 1 -25 6 -25
11 0 5 -12 -1 -26 -12 -20 -15 -31 -18 -50 -11 -31 12 -31 -2 0 -43 13 -18 32
-48 41 -67 26 -51 86 -141 112 -169 13 -13 23 -27 23 -32 0 -4 11 -18 24 -31
13 -13 29 -41 36 -63 7 -22 26 -56 41 -75 15 -19 31 -47 34 -63 4 -15 11 -30
16 -33 5 -3 9 -14 9 -25 0 -11 11 -24 25 -31 14 -6 25 -16 25 -21 0 -5 -8 -3
-17 4 -11 10 -14 10 -9 2 4 -7 4 -18 0 -25 -7 -10 -38 45 -112 197 -17 33 -39
68 -51 77 -11 10 -21 25 -21 33 0 8 -28 52 -63 98 -34 45 -80 114 -101 152
-22 39 -50 84 -63 101 -28 37 -28 43 -5 41 9 0 44 4 77 11 33 6 71 13 85 16
36 5 154 7 149 2z m-1109 -27 c0 -6 -4 -7 -10 -4 -5 3 -10 11 -10 16 0 6 5 7
10 4 6 -3 10 -11 10 -16z m40 -69 c0 -10 7 -23 15 -30 8 -7 15 -19 15 -26 0
-42 -56 23 -67 78 l-6 33 21 -19 c12 -11 22 -27 22 -36z m60 -130 c0 -5 -2
-10 -4 -10 -3 0 -8 5 -11 10 -3 6 -1 10 4 10 6 0 11 -4 11 -10z m-586 -155
c-4 -66 -8 -167 -9 -225 -1 -58 -4 -112 -7 -120 -4 -8 -9 -22 -12 -30 -8 -19
1 374 10 458 12 110 25 46 18 -83z m631 75 c9 -30 5 -27 -25 25 -21 36 -21 38
-3 20 12 -11 24 -31 28 -45z m110 -160 c3 -5 1 -10 -4 -10 -6 0 -11 5 -11 10
0 6 2 10 4 10 3 0 8 -4 11 -10z m46 -47 c13 -16 12 -17 -3 -4 -17 13 -22 21
-14 21 2 0 10 -8 17 -17z m2942 -15 c25 -34 85 -137 75 -128 -18 15 -116 160
-108 160 5 0 20 -15 33 -32z m-1964 -248 c12 -22 19 -40 15 -40 -3 0 -1 -7 6
-14 9 -11 9 -19 0 -33 -9 -15 -11 -15 -6 -1 2 9 -2 19 -10 22 -8 3 -14 15 -14
26 0 11 -4 20 -9 20 -5 0 -11 14 -13 30 -6 41 4 38 31 -10z m142 -269 c77
-166 54 -159 -35 10 -21 41 -47 86 -57 101 -31 43 -22 42 22 -3 22 -23 54 -71
70 -108z m-859 63 c11 -25 18 -47 15 -50 -3 -3 -16 16 -28 43 -13 26 -25 52
-27 57 -3 5 1 6 7 2 6 -4 21 -28 33 -52z m78 -95 c0 -6 15 -34 34 -62 28 -45
50 -79 119 -191 7 -11 29 -44 50 -74 20 -31 37 -60 37 -65 0 -5 -21 21 -46 59
-25 38 -49 71 -53 74 -13 10 -101 130 -101 139 0 4 -9 16 -19 25 -10 10 -22
33 -26 52 -3 20 -9 43 -12 51 -4 11 -2 14 5 9 7 -4 12 -12 12 -17z m-1193
-111 c-3 -7 -5 -2 -5 12 0 14 2 19 5 13 2 -7 2 -19 0 -25z m4237 6 c3 -8 2
-12 -4 -9 -6 3 -10 10 -10 16 0 14 7 11 14 -7z m-2184 -15 c0 -5 15 -23 34
-39 32 -29 77 -109 89 -157 9 -38 -11 -26 -39 25 -15 26 -44 75 -66 109 -37
61 -48 90 -28 78 6 -3 10 -11 10 -16z m2240 -69 c0 -5 -2 -10 -4 -10 -3 0 -8
5 -11 10 -3 6 -1 10 4 10 6 0 11 -4 11 -10z m-2989 -101 c13 -25 -12 -16 -29
11 -10 16 -9 18 3 13 9 -3 20 -14 26 -24z m3084 0 c9 -17 14 -33 12 -35 -6 -6
-47 45 -47 57 0 20 21 7 35 -22z m-4388 -31 c-3 -8 -6 -5 -6 6 -1 11 2 17 5
13 3 -3 4 -12 1 -19z m2231 -25 c6 -16 17 -50 23 -78 7 -27 19 -60 27 -72 7
-12 12 -28 9 -35 -4 -12 -57 92 -57 112 0 6 -9 15 -19 22 -18 11 -18 13 -3 26
13 10 14 15 5 18 -15 6 -18 34 -4 34 5 0 13 -12 19 -27z m-880 -3 c3 -7 0 -10
-7 -6 -6 4 -11 2 -11 -4 0 -6 -5 -8 -12 -4 -9 6 -9 9 0 12 7 2 9 8 6 14 -4 6
-1 9 6 6 8 -2 16 -10 18 -18z m3082 -22 c0 -5 -7 -3 -15 6 -8 8 -15 18 -15 22
0 3 7 1 15 -6 8 -7 15 -17 15 -22z m-2235 12 c3 -5 1 -10 -4 -10 -6 0 -11 5
-11 10 0 6 2 10 4 10 3 0 8 -4 11 -10z m-791 -74 c20 -29 36 -57 36 -61 0 -5
10 -19 22 -32 12 -13 19 -26 15 -29 -9 -9 -56 48 -57 69 0 9 -4 17 -9 17 -8 0
-61 74 -61 85 0 19 24 -3 54 -49z m186 -227 c30 -49 84 -137 119 -196 36 -60
88 -145 117 -189 29 -45 64 -103 78 -128 14 -25 38 -67 53 -93 14 -27 46 -79
70 -117 24 -37 43 -70 41 -71 -2 -2 -14 13 -28 33 -13 20 -32 46 -41 57 -19
22 -59 90 -84 143 -18 38 -71 115 -124 182 -20 25 -45 63 -55 85 -50 111 -94
185 -138 232 -26 28 -48 57 -48 64 0 7 -7 21 -16 30 -9 10 -18 30 -20 45 -1
15 -7 31 -13 37 -6 6 -11 18 -11 27 0 16 16 -6 100 -141z m729 85 c6 -15 21
-39 32 -53 139 -184 192 -252 218 -282 17 -20 31 -44 31 -53 0 -9 4 -24 9 -34
23 -45 45 -98 46 -108 0 -5 18 -35 40 -65 22 -30 40 -57 40 -61 0 -3 15 -23
33 -43 17 -20 33 -42 34 -48 5 -42 20 -75 77 -170 46 -76 76 -146 54 -122 -17
18 -133 227 -133 240 0 7 -14 30 -31 51 -17 22 -47 64 -66 94 -20 30 -43 66
-52 80 -10 14 -30 61 -45 104 -18 51 -40 93 -62 115 -18 20 -62 81 -98 136
-36 55 -71 107 -79 115 -15 16 -77 117 -77 125 0 15 19 1 29 -21z m91 -43 c-1
-10 -6 -7 -15 9 -19 33 -18 50 0 26 8 -11 15 -27 15 -35z m4304 -16 c14 -9 37
-37 52 -62 22 -39 26 -53 21 -95 -12 -100 -102 -177 -192 -163 -79 12 -152
132 -126 207 18 51 63 110 96 125 37 17 115 10 149 -12z m-6737 -7 c-3 -8 -6
-5 -6 6 -1 11 2 17 5 13 3 -3 4 -12 1 -19z m2463 -18 c7 -13 7 -20 1 -20 -6 0
-15 9 -21 20 -7 13 -7 20 -1 20 6 0 15 -9 21 -20z m-2462 -70 c-1 -16 -5 -30
-10 -30 -4 0 -8 14 -8 30 0 17 4 30 9 30 5 0 9 -13 9 -30z m1692 -170 c0 -5
-2 -10 -4 -10 -3 0 -8 5 -11 10 -3 6 -1 10 4 10 6 0 11 -4 11 -10z m3119 -85
c0 -5 -4 -3 -9 5 -5 8 -9 22 -9 30 0 16 17 -16 18 -35z m-3089 15 c0 -5 -2
-10 -4 -10 -3 0 -8 5 -11 10 -3 6 -1 10 4 10 6 0 11 -4 11 -10z m-19154 -336
c38 -28 83 -113 84 -157 0 -50 -41 -126 -85 -156 -21 -14 -56 -26 -85 -29 -42
-4 -57 0 -90 22 -62 41 -94 97 -95 166 0 68 29 117 92 156 31 20 48 24 96 21
37 -2 66 -10 83 -23z m19508 -170 c5 -14 4 -15 -9 -4 -17 14 -19 20 -6 20 5 0
12 -7 15 -16z m93 -93 c36 -59 108 -185 112 -196 10 -27 56 -121 63 -130 5 -5
27 -30 48 -53 22 -24 40 -48 40 -54 0 -17 -30 13 -31 31 0 9 -3 11 -5 4 -3 -6
2 -25 10 -42 18 -34 21 -61 6 -61 -5 0 -10 8 -10 19 0 10 -9 30 -20 44 -11 14
-20 30 -20 37 0 6 -11 26 -24 43 -27 37 -126 215 -126 228 0 5 -16 29 -35 55
-19 25 -35 50 -35 56 0 5 -15 29 -32 51 -22 28 -27 39 -15 34 10 -4 17 -2 18
6 0 13 20 -13 56 -72z m937 -251 c18 -31 36 -69 40 -85 l7 -30 -20 25 c-11 14
-30 43 -42 65 -59 108 -69 127 -69 133 1 12 50 -51 84 -108z m-3167 18 c-3 -7
-5 -2 -5 12 0 14 2 19 5 13 2 -7 2 -19 0 -25z m-12 -255 c-15 -325 -13 -303
-23 -303 -9 0 -5 103 8 214 6 44 10 121 10 173 0 51 3 93 7 93 3 0 2 -80 -2
-177z m3369 -88 c9 -14 14 -31 10 -37 -4 -6 -12 3 -20 22 -21 49 -17 56 10 15z
m-794 -50 c0 -8 -2 -15 -4 -15 -2 0 -6 7 -10 15 -3 8 -1 15 4 15 6 0 10 -7 10
-15z m77 -52 c9 -20 18 -45 18 -56 1 -10 8 -22 15 -27 7 -4 11 -13 9 -19 -5
-13 -79 95 -79 114 0 11 9 25 16 25 2 0 11 -17 21 -37z m61 -148 c-3 -3 -9 2
-12 12 -6 14 -5 15 5 6 7 -7 10 -15 7 -18z m841 -31 c12 -14 29 -48 41 -78 7
-20 6 -26 -5 -26 -7 0 -17 10 -20 23 -4 12 -20 43 -36 68 -33 52 -39 88 -9 49
11 -14 24 -30 29 -36z m-3575 -56 c-8 -212 -27 -484 -35 -503 -6 -13 -8 11 -5
65 22 405 31 540 37 540 3 0 5 -46 3 -102z m7614 82 c98 -44 152 -111 170
-211 26 -137 -55 -266 -195 -309 -114 -35 -216 0 -290 100 -37 50 -63 125 -63
179 0 20 11 60 25 89 64 138 229 209 353 152z m-4682 -282 c56 -96 94 -165 94
-174 0 -4 -9 1 -20 11 -11 10 -18 20 -16 23 3 2 -12 25 -31 50 -20 26 -42 61
-49 78 -7 17 -20 36 -28 44 -20 16 -20 30 -1 30 8 0 31 -28 51 -62z m794 -53
c0 -5 -5 -3 -10 5 -5 8 -10 20 -10 25 0 6 5 3 10 -5 5 -8 10 -19 10 -25z
m-3763 -362 c-3 -10 -5 -4 -5 12 0 17 2 24 5 18 2 -7 2 -21 0 -30z m-8 -143
l-5 -95 -2 91 c-1 50 1 94 5 97 9 10 9 12 2 -93z m-8 -141 l-9 -34 -1 31 c-1
17 2 34 6 37 12 13 14 -1 4 -34z m-8 -309 c-10 -279 -25 -475 -37 -487 -4 -4
-4 36 -1 87 2 52 10 203 16 335 7 132 15 231 20 220 4 -11 5 -81 2 -155z
m-18154 -102 c16 -13 38 -36 49 -53 18 -26 19 -37 12 -78 -15 -75 -48 -125
-102 -153 -120 -62 -260 96 -200 227 30 66 43 79 97 93 56 15 93 6 144 -36z
m18117 -496 c-11 -10 -12 3 -7 53 l6 50 3 -49 c2 -26 1 -51 -2 -54z m5158
-658 c11 -28 6 -39 -9 -20 -8 11 -15 23 -15 28 0 14 18 9 24 -8z m-23509
-1170 c94 -32 178 -154 178 -258 0 -95 -72 -200 -168 -246 -167 -79 -354 38
-381 238 -10 81 10 137 72 197 28 28 71 57 95 66 58 22 144 23 204 3z m17043
-19 c-6 -14 -13 -23 -15 -21 -5 5 15 46 22 46 3 0 -1 -11 -7 -25z m9978 -12
c28 -18 67 -75 76 -110 15 -57 -39 -153 -104 -188 -67 -37 -146 1 -193 93 -59
117 113 276 221 205z m-7592 -279 c9 -3 16 -13 16 -21 0 -10 -6 -13 -16 -9 -9
3 -18 6 -20 6 -2 0 -4 7 -4 15 0 17 2 18 24 9z m-18971 -2877 c22 -12 46 -35
55 -52 10 -16 21 -33 25 -36 18 -13 20 -88 3 -113 -9 -14 -16 -31 -16 -38 0
-7 -21 -31 -46 -55 -53 -48 -113 -64 -164 -43 -42 18 -108 95 -116 137 -14 75
24 164 89 203 45 28 121 26 170 -3z m25352 -1536 c77 -38 96 -54 139 -121 31
-47 36 -63 36 -112 0 -74 -27 -145 -76 -198 -45 -48 -74 -65 -134 -79 -49 -11
-137 0 -186 24 -40 19 -100 86 -125 140 -22 46 -25 149 -7 192 16 38 70 116
87 128 95 65 170 73 266 26z m-19548 -2387 c-3 -3 -12 -4 -19 -1 -8 3 -5 6 6
6 11 1 17 -2 13 -5z m18641 -133 c20 -11 50 -36 65 -56 40 -50 43 -142 8 -198
-50 -81 -162 -118 -221 -73 -67 51 -108 136 -96 199 10 53 63 125 99 136 53
15 106 12 145 -8z m-20762 -268 c15 -20 23 -33 16 -29 -13 8 -56 66 -49 66 3
0 17 -17 33 -37z m185 -210 c13 -16 12 -17 -3 -4 -10 7 -18 15 -18 17 0 8 8 3
21 -13z m89 -109 c0 -15 -21 2 -44 34 -37 54 -32 61 9 12 19 -23 35 -44 35
-46z m19643 -351 c62 -22 117 -92 117 -147 0 -56 -35 -117 -98 -169 -62 -51
-167 -31 -215 41 -46 68 -53 104 -32 159 47 124 112 157 228 116z m-17200
-100 c-7 -2 -19 -2 -25 0 -7 3 -2 5 12 5 14 0 19 -2 13 -5z m-150 -30 c-7 -2
-21 -2 -30 0 -10 3 -4 5 12 5 17 0 24 -2 18 -5z m-1416 -279 c-3 -3 -12 -4
-19 -1 -8 3 -5 6 6 6 11 1 17 -2 13 -5z m-40 -10 c-3 -3 -12 -4 -19 -1 -8 3
-5 6 6 6 11 1 17 -2 13 -5z m471 -586 c19 -19 14 -30 -8 -18 -11 6 -20 15 -20
20 0 14 14 12 28 -2z m-1508 -680 c96 -66 93 -212 -5 -280 -54 -37 -87 -43
-128 -23 -46 22 -98 96 -104 149 -7 54 28 131 71 157 44 27 124 25 166 -3z
m3165 -528 c3 -5 2 -10 -4 -10 -5 0 -13 5 -16 10 -3 6 -2 10 4 10 5 0 13 -4
16 -10z m-1591 -661 c60 -26 106 -93 106 -153 0 -87 -99 -185 -174 -173 -51 9
-86 26 -86 42 0 9 -11 20 -24 24 -17 7 -26 22 -35 55 -19 76 19 161 94 207 39
24 62 24 119 -2z m12649 -1362 c101 -50 164 -166 151 -277 -7 -54 -46 -150
-63 -150 -4 0 -13 -11 -19 -25 -18 -39 -105 -78 -177 -78 -99 0 -141 17 -210
86 -84 85 -107 175 -74 288 17 57 106 147 169 171 66 25 153 19 223 -15z
m-7986 -553 c68 -31 136 -100 157 -161 54 -157 -44 -327 -209 -364 -106 -24
-206 24 -277 131 -42 63 -43 67 -43 145 0 90 17 133 76 196 37 40 64 56 124
75 49 16 101 9 172 -22z m5255 -328 c76 -42 112 -121 90 -194 -15 -50 -73
-107 -128 -126 -57 -19 -82 -9 -142 59 -41 46 -60 109 -46 151 17 52 36 83 54
89 11 4 20 10 20 15 0 10 53 28 87 29 12 1 42 -10 65 -23z"/>
<path d="M30167 33420 c-167 -15 -379 -76 -546 -158 -52 -25 -102 -53 -111
-61 -9 -9 -24 -20 -32 -26 -72 -47 -105 -74 -187 -146 -52 -46 -99 -93 -105
-104 -6 -11 -18 -25 -27 -32 -9 -7 -36 -43 -60 -80 -24 -37 -59 -88 -78 -113
-32 -42 -103 -182 -149 -295 -89 -217 -122 -615 -72 -855 12 -58 37 -145 55
-195 18 -49 36 -101 40 -115 15 -49 122 -256 158 -305 20 -27 51 -74 69 -104
17 -30 40 -56 50 -59 10 -2 18 -9 18 -14 0 -17 181 -191 255 -246 69 -51 287
-166 375 -197 155 -56 345 -85 563 -86 146 -1 294 19 385 52 31 11 73 25 92
31 141 41 329 139 440 228 229 183 354 339 470 585 125 265 150 369 157 673 6
231 -1 299 -44 462 -41 156 -182 432 -282 550 -93 111 -218 234 -291 288 -41
31 -77 58 -80 62 -15 17 -115 73 -185 103 -110 46 -344 122 -435 141 -95 19
-316 27 -443 16z"/>
<path d="M19515 30968 c-27 -5 -79 -13 -115 -18 -121 -16 -140 -22 -140 -45 0
-13 -62 -150 -89 -195 -4 -8 -36 -73 -70 -145 -34 -71 -66 -137 -71 -145 -18
-30 -139 -277 -160 -325 -12 -27 -113 -234 -225 -460 -111 -225 -222 -450
-245 -500 -23 -49 -73 -153 -110 -230 -38 -77 -109 -225 -159 -329 -50 -103
-109 -218 -130 -255 -22 -36 -51 -97 -66 -136 -28 -73 -120 -262 -209 -425
-28 -53 -71 -140 -96 -195 -24 -55 -110 -230 -190 -390 -81 -159 -177 -355
-214 -435 -37 -80 -80 -170 -97 -200 -16 -30 -104 -206 -195 -390 -518 -1049
-585 -1186 -616 -1270 -31 -84 -78 -222 -78 -229 0 -12 61 -4 73 10 6 8 32 28
56 45 42 28 57 39 140 109 20 17 47 38 61 47 25 15 250 214 261 230 3 4 20 19
37 32 34 25 222 196 281 257 20 20 79 74 131 120 52 45 118 104 145 130 28 26
77 71 111 100 134 118 211 187 284 254 42 39 125 115 185 170 60 55 128 118
151 140 23 22 70 65 104 95 34 30 103 95 154 145 50 49 108 104 130 122 36 32
216 197 296 273 20 19 63 56 96 82 32 25 79 66 104 90 25 25 65 60 90 79 25
19 68 56 95 81 87 81 268 241 320 283 27 22 79 69 115 104 36 35 81 74 100 86
19 13 55 42 80 66 25 24 71 67 104 94 32 28 75 66 96 85 21 19 73 67 116 106
44 39 114 103 157 142 43 39 94 84 115 99 20 15 46 37 57 48 11 12 36 33 55
47 52 38 302 258 405 357 50 48 115 107 145 132 112 94 196 167 250 218 30 28
58 51 62 51 4 0 11 7 15 15 5 8 33 35 63 61 30 25 87 76 125 113 39 37 95 89
125 116 127 111 244 221 422 395 173 169 189 187 184 213 -13 65 -174 234
-306 321 -41 27 -100 66 -130 87 -133 90 -338 179 -585 254 -121 37 -223 71
-271 91 -17 6 -57 15 -90 19 -32 4 -67 12 -77 17 -10 5 -68 16 -130 24 -62 8
-123 17 -137 19 -112 15 -202 25 -300 30 -63 4 -128 9 -145 11 -58 10 -600 11
-650 2z"/>
<path d="M18080 30754 c-30 -7 -115 -27 -188 -44 -73 -18 -165 -43 -205 -56
-40 -14 -142 -42 -227 -64 -85 -21 -191 -52 -235 -69 -65 -24 -348 -116 -454
-146 -17 -5 -20 -9 -11 -15 12 -8 -46 -30 -90 -35 -8 0 -24 -6 -35 -12 -11 -6
-35 -14 -52 -18 -18 -3 -33 -10 -33 -14 0 -5 -39 -23 -87 -41 -86 -31 -121
-47 -365 -164 -64 -31 -121 -56 -127 -56 -6 0 -11 -4 -11 -10 0 -5 -5 -10 -11
-10 -16 0 -260 -109 -279 -125 -8 -6 -33 -19 -56 -28 -22 -8 -56 -25 -75 -36
-33 -19 -93 -52 -189 -102 -25 -13 -46 -27 -48 -31 -2 -5 -10 -8 -17 -8 -8 0
-20 -6 -28 -14 -8 -8 -46 -32 -86 -53 -124 -66 -145 -78 -211 -117 -36 -22
-75 -49 -88 -60 -13 -12 -52 -39 -87 -61 -119 -74 -296 -198 -308 -215 -7 -9
-23 -21 -36 -25 -34 -11 -129 -109 -138 -142 -3 -15 -1 -62 5 -103 9 -68 82
-382 133 -580 42 -165 73 -289 89 -365 10 -44 32 -127 50 -185 17 -58 38 -134
45 -170 7 -36 41 -173 75 -305 59 -226 122 -489 154 -635 8 -36 30 -126 49
-200 19 -74 37 -146 39 -160 8 -37 89 -355 176 -685 24 -93 55 -213 67 -265
52 -213 155 -600 177 -666 25 -74 49 -111 85 -131 45 -25 173 48 173 98 0 10
6 22 14 26 8 4 37 68 66 140 28 73 56 135 61 138 10 7 89 173 89 188 0 9 47
115 71 159 5 10 9 28 9 40 0 39 12 69 25 64 12 -4 35 33 35 56 0 12 120 287
181 414 22 45 39 85 39 90 0 27 22 84 31 79 5 -4 12 2 15 12 11 29 138 328
189 443 26 58 50 120 55 138 4 18 13 38 18 45 6 7 25 50 42 96 17 46 37 96 45
110 15 27 44 105 75 203 10 32 27 72 38 90 11 18 33 65 48 103 15 39 31 72 35
75 4 3 11 21 17 40 6 19 24 68 41 108 17 40 35 90 41 112 6 22 16 39 22 37 6
-1 15 12 20 28 14 45 46 120 89 210 55 115 98 220 120 295 11 36 25 82 31 102
6 20 15 36 21 35 5 -1 15 15 22 35 8 20 30 69 49 108 37 73 44 96 26 85 -16
-10 -11 26 11 75 19 45 20 45 15 10 -2 -19 -8 -44 -12 -55 -6 -18 -5 -18 9 -5
20 20 87 181 126 307 18 57 36 105 42 108 5 4 9 15 9 26 0 10 5 19 10 19 12 0
70 123 70 146 0 8 11 36 24 62 13 26 31 72 41 102 10 30 28 73 40 95 27 46 76
169 95 235 8 25 17 49 22 55 4 5 8 21 8 36 0 35 17 79 35 93 14 11 58 119 118
294 17 50 36 92 42 92 11 0 87 189 93 230 2 14 10 36 19 49 15 23 83 215 83
235 0 5 -11 -1 -25 -14 -14 -13 -25 -20 -25 -15 0 4 7 13 17 20 19 14 10 35
-15 34 -9 0 -42 -7 -72 -15z m-293 -859 c-4 -34 -17 -44 -17 -13 0 22 7 38 17
38 2 0 2 -11 0 -25z m-78 -349 c-6 -25 -16 -46 -21 -46 -6 0 -8 6 -5 13 2 6
10 29 18 49 18 51 23 41 8 -16z m-139 -338 c0 -19 -18 -44 -25 -36 -4 3 0 15
7 27 15 24 18 26 18 9z m-29 -81 c-8 -8 -11 -7 -11 4 0 20 13 34 18 19 3 -7
-1 -17 -7 -23z m-181 -425 c0 -5 -7 -17 -15 -28 -14 -19 -14 -19 -15 2 0 11 3
24 7 27 9 10 23 9 23 -1z m-220 -388 c0 -8 -4 -12 -10 -9 -5 3 -10 10 -10 16
0 5 5 9 10 9 6 0 10 -7 10 -16z m-2613 -196 c-3 -8 -6 -5 -6 6 -1 11 2 17 5
13 3 -3 4 -12 1 -19z m23 -58 c0 -5 -4 -10 -10 -10 -5 0 -10 5 -10 10 0 6 5
10 10 10 6 0 10 -4 10 -10z m40 -196 c0 -14 -4 -22 -10 -19 -5 3 -10 17 -10
31 0 14 4 22 10 19 6 -3 10 -17 10 -31z m1948 -1029 c-6 -14 -15 -25 -20 -25
-6 0 -7 6 -4 13 3 6 9 20 12 29 4 10 10 15 15 13 4 -3 3 -17 -3 -30z m-23 -57
c-4 -13 -12 -27 -17 -33 -7 -7 -8 -2 -3 14 6 20 4 23 -9 18 -9 -4 -16 -3 -16
2 0 13 12 21 32 21 15 0 18 -5 13 -22z m-1605 -193 c0 -8 -2 -15 -4 -15 -2 0
-6 7 -10 15 -3 8 -1 15 4 15 6 0 10 -7 10 -15z"/>
<path d="M22515 29268 c-16 -13 -59 -47 -95 -76 -36 -29 -114 -92 -175 -139
-60 -48 -148 -119 -195 -158 -47 -39 -137 -111 -200 -160 -132 -102 -410 -329
-455 -371 -16 -15 -106 -90 -200 -166 -93 -75 -195 -159 -226 -185 -31 -26
-98 -82 -149 -123 -149 -120 -344 -281 -355 -294 -5 -7 -44 -38 -85 -71 -85
-67 -259 -213 -465 -390 -77 -66 -189 -161 -249 -210 -60 -50 -146 -123 -190
-164 -45 -40 -119 -105 -166 -144 -47 -39 -114 -99 -150 -132 -36 -33 -144
-127 -240 -210 -96 -82 -191 -163 -210 -181 -87 -78 -211 -184 -270 -233 -36
-30 -67 -57 -70 -60 -3 -3 -34 -31 -70 -61 -36 -30 -87 -76 -115 -101 -27 -26
-63 -58 -80 -71 -16 -12 -78 -66 -136 -118 -58 -52 -177 -157 -265 -232 -175
-152 -287 -252 -411 -368 -45 -43 -117 -106 -160 -141 -43 -35 -83 -68 -89
-74 -6 -5 -83 -73 -170 -150 -88 -77 -205 -185 -261 -240 -55 -55 -122 -119
-147 -142 -59 -53 -60 -68 -3 -59 23 4 74 11 112 16 82 10 301 51 430 80 146
33 304 65 590 120 149 28 358 69 465 91 107 22 263 53 345 69 83 15 220 44
305 64 85 19 227 48 315 65 88 17 212 41 275 55 443 93 568 119 745 151 110
20 227 43 260 50 202 47 531 119 660 144 450 90 562 114 685 147 239 63 415
117 431 131 8 7 21 13 27 13 6 0 28 11 48 25 31 21 42 38 60 93 67 202 91 293
200 752 14 58 30 116 36 130 6 14 16 57 24 95 7 39 26 133 43 210 75 349 132
739 161 1100 5 66 14 180 21 253 14 164 6 960 -10 1077 -20 132 -39 216 -63
264 -19 38 -28 46 -53 48 -18 2 -42 -6 -60 -19z"/>
<path d="M13353 28286 c-39 -39 -118 -117 -175 -172 -57 -56 -110 -110 -119
-120 -9 -11 -53 -54 -98 -98 -44 -43 -81 -82 -81 -86 0 -3 -25 -33 -56 -66
-31 -32 -97 -106 -146 -164 -50 -58 -109 -125 -132 -150 -38 -41 -98 -111
-210 -248 -21 -26 -63 -76 -94 -111 -31 -35 -74 -89 -97 -122 -22 -32 -81
-113 -132 -181 -146 -195 -156 -209 -199 -283 -50 -86 -102 -165 -149 -227
-19 -25 -35 -49 -35 -52 0 -3 -20 -33 -43 -68 -24 -35 -59 -90 -77 -123 -18
-33 -52 -89 -75 -125 -93 -144 -125 -197 -125 -205 0 -4 -11 -22 -23 -39 -13
-17 -50 -83 -82 -146 -31 -63 -75 -145 -96 -182 -22 -36 -39 -70 -39 -74 0 -4
-11 -21 -23 -38 -27 -35 -121 -219 -177 -346 -21 -47 -52 -116 -70 -155 -18
-38 -40 -90 -50 -115 -10 -25 -27 -61 -38 -80 -20 -34 -62 -149 -62 -170 0
-23 187 -72 335 -89 55 -6 132 -15 170 -20 39 -5 97 -12 130 -15 33 -4 114
-13 180 -21 66 -8 192 -21 280 -30 88 -9 214 -23 280 -31 66 -9 201 -22 300
-29 99 -8 207 -19 240 -25 33 -5 152 -17 265 -25 113 -8 225 -17 250 -20 25
-2 108 -9 185 -15 77 -6 196 -17 265 -25 69 -8 197 -19 285 -25 88 -6 176 -13
195 -15 169 -24 576 -34 635 -17 53 16 109 82 124 143 20 83 -1 178 -124 564
-35 110 -84 272 -110 360 -25 88 -63 214 -84 280 -127 398 -165 511 -173 522
-5 6 -22 60 -38 120 -16 59 -52 185 -80 278 -27 94 -63 215 -80 270 -16 55
-43 138 -60 185 -18 47 -49 152 -71 233 -22 81 -71 241 -109 354 -39 114 -70
214 -70 223 0 16 -109 374 -195 640 -64 199 -94 258 -108 218 -3 -9 -10 -6
-23 8 l-19 22 -72 -72z"/>
<path d="M21240 24249 c-74 -10 -187 -25 -250 -33 -63 -9 -187 -27 -275 -41
-88 -15 -200 -33 -250 -40 -49 -8 -137 -23 -195 -34 -58 -10 -150 -26 -205
-35 -216 -35 -615 -102 -755 -126 -63 -12 -187 -32 -275 -45 -169 -26 -261
-42 -440 -74 -60 -11 -207 -36 -325 -56 -237 -39 -391 -66 -550 -95 -58 -10
-186 -32 -285 -49 -99 -17 -247 -42 -330 -55 -82 -14 -168 -30 -190 -35 -22
-5 -67 -14 -100 -21 -33 -6 -96 -20 -140 -30 -44 -10 -120 -26 -170 -35 -49
-9 -100 -18 -112 -21 -18 -3 -23 -11 -23 -34 0 -33 14 -50 279 -337 91 -98
185 -200 210 -228 53 -59 421 -443 601 -627 130 -132 615 -628 1015 -1037 256
-261 825 -825 895 -887 66 -58 117 -94 133 -94 37 0 363 399 518 635 281 425
859 1355 859 1381 0 3 8 18 18 32 48 68 459 886 517 1027 20 50 66 155 102
235 112 251 117 263 169 437 45 153 48 196 13 229 -11 10 -30 28 -42 40 -64
59 -86 68 -186 70 -53 1 -157 -7 -231 -17z"/>
<path d="M10453 23486 c-108 -27 -145 -77 -219 -305 -43 -130 -153 -555 -194
-746 -41 -194 -100 -550 -124 -755 -14 -118 -30 -251 -36 -295 -25 -206 -33
-395 -33 -850 -1 -634 10 -749 79 -805 35 -30 142 2 206 62 16 15 44 32 63 38
19 6 35 16 35 21 0 5 19 21 42 36 23 16 50 36 60 45 9 9 37 26 62 38 25 11 48
24 51 30 3 5 17 10 31 10 14 0 24 6 24 14 0 8 10 18 23 22 12 3 30 13 40 22 9
8 17 12 17 8 0 -11 60 26 99 61 20 18 39 33 44 33 4 0 25 12 47 26 23 15 44
23 52 18 7 -4 10 -4 6 1 -9 9 86 75 107 75 8 0 18 8 24 17 5 10 13 15 17 11 3
-4 22 6 42 22 20 16 41 26 50 22 9 -3 13 -1 9 5 -9 14 50 61 124 100 52 28
138 81 201 124 15 11 33 19 41 19 8 0 22 9 32 20 10 11 24 20 32 20 7 0 21 9
30 20 10 11 26 20 36 20 9 0 20 6 23 14 3 8 12 12 20 9 7 -3 17 2 20 11 3 9
14 15 23 14 9 -2 15 2 14 7 -1 6 8 12 19 12 11 1 28 9 37 17 10 9 23 16 29 16
7 0 12 4 12 9 0 4 20 19 45 32 25 13 45 27 45 31 0 4 6 5 14 2 7 -3 30 2 51
10 35 15 37 15 42 -4 3 -11 9 -17 14 -14 5 3 9 0 9 -6 0 -6 -7 -13 -15 -16 -8
-4 -15 -15 -15 -26 0 -10 -4 -16 -10 -13 -5 3 -10 -3 -10 -14 0 -20 -52 -65
-64 -54 -3 3 -6 1 -6 -5 0 -7 5 -12 12 -12 6 0 -8 -18 -32 -40 -24 -22 -46
-40 -50 -40 -3 0 -26 -18 -50 -41 -25 -22 -57 -51 -72 -65 -15 -13 -32 -24
-38 -24 -7 0 -10 -6 -7 -12 4 -14 -48 -51 -73 -52 -8 -1 -14 -9 -13 -19 0 -12
-4 -16 -12 -13 -9 3 -12 0 -8 -9 6 -18 -82 -105 -107 -105 -21 0 -73 -54 -63
-65 5 -4 3 -5 -3 -2 -12 7 -38 -16 -29 -25 3 -3 -22 -25 -55 -49 -33 -24 -60
-49 -60 -55 0 -6 -12 -20 -27 -29 -16 -10 -32 -24 -36 -32 -4 -7 -11 -13 -16
-13 -4 0 -29 -20 -55 -45 -27 -25 -53 -45 -57 -45 -5 0 -9 -7 -9 -15 0 -8 -6
-15 -14 -15 -8 0 -45 -29 -81 -65 -37 -36 -74 -65 -81 -65 -8 0 -28 -14 -44
-30 -17 -17 -30 -29 -30 -27 0 3 -28 -24 -63 -58 -35 -34 -81 -73 -103 -87
-21 -14 -45 -33 -53 -42 -7 -9 -21 -16 -31 -16 -9 0 -25 -9 -35 -20 -10 -11
-24 -20 -32 -20 -7 0 -13 -6 -13 -14 0 -8 -21 -32 -47 -53 -27 -21 -52 -43
-58 -50 -5 -7 -22 -18 -36 -25 -14 -7 -57 -49 -95 -93 -38 -43 -103 -115 -144
-158 -119 -125 -120 -128 -74 -342 14 -60 31 -142 39 -182 14 -69 109 -450
179 -718 36 -138 71 -257 87 -290 5 -11 25 -67 45 -124 104 -304 236 -589 351
-759 35 -51 63 -98 63 -105 1 -12 59 -98 139 -204 56 -73 213 -235 261 -268
31 -21 44 -25 78 -19 30 5 43 12 48 28 3 11 16 32 29 46 26 29 125 214 125
234 0 8 7 19 15 26 9 7 25 34 36 59 19 45 84 174 334 666 70 138 138 277 151
310 13 33 30 65 37 70 8 6 50 82 94 170 44 88 178 354 298 590 218 431 348
689 444 885 28 58 72 143 97 190 25 47 111 213 191 370 80 157 153 294 162
305 30 34 101 182 101 208 0 14 4 29 10 32 6 4 7 -1 3 -11 -4 -11 -3 -15 5
-11 6 4 16 24 23 45 20 62 84 204 119 262 18 30 48 84 67 120 19 36 45 83 58
105 13 22 60 112 104 200 100 196 224 431 232 440 4 3 48 88 99 188 50 100 98
193 105 207 13 24 40 82 84 180 11 25 27 56 35 70 29 50 57 113 52 118 -9 9
-70 -26 -99 -58 -16 -16 -35 -30 -42 -30 -8 0 -85 -70 -172 -156 -87 -85 -174
-167 -193 -181 -19 -15 -59 -51 -88 -81 -71 -72 -248 -229 -293 -259 -20 -13
-42 -35 -49 -48 -7 -14 -21 -27 -31 -30 -10 -3 -60 -48 -112 -100 -52 -52 -99
-95 -104 -95 -5 0 -50 -36 -101 -80 -51 -44 -92 -77 -92 -73 0 4 -13 -7 -30
-25 -16 -18 -30 -37 -30 -43 0 -5 -7 -9 -15 -9 -8 0 -24 -9 -35 -20 -11 -11
-25 -20 -31 -20 -6 0 -28 -17 -49 -39 -20 -21 -48 -41 -62 -44 -14 -4 -42 -22
-64 -42 -21 -19 -44 -35 -51 -35 -7 0 -13 -3 -13 -7 0 -5 -18 -17 -40 -27 -22
-11 -40 -22 -40 -26 0 -8 -97 -70 -109 -70 -4 0 -18 -13 -31 -30 -24 -29 -59
-43 -44 -17 6 9 4 9 -8 -1 -14 -11 -16 -11 -14 2 1 9 9 22 18 28 9 7 18 24 22
38 3 14 24 37 45 53 34 23 39 32 36 57 -2 17 1 30 6 30 6 0 7 -5 3 -12 -4 -7
-3 -8 5 -4 6 4 9 11 6 16 -3 5 -1 11 5 15 5 3 10 15 10 26 0 10 6 19 13 19 7
0 21 15 31 33 11 17 33 47 50 66 54 58 59 64 139 159 43 50 94 104 113 118 19
15 34 31 34 36 0 5 19 29 43 52 50 52 137 147 180 198 18 20 65 71 105 113 39
41 72 79 72 84 0 5 15 22 33 38 18 16 62 65 98 109 67 83 129 146 599 610 374
369 610 613 610 628 0 8 7 19 15 26 21 17 19 53 -5 83 -31 39 -108 78 -199
101 -65 17 -390 60 -571 76 -179 16 -298 27 -520 50 -107 10 -269 24 -360 30
-91 6 -250 17 -355 25 -195 15 -282 20 -515 30 -74 3 -220 10 -325 15 -189 9
-483 16 -1000 25 -199 3 -284 0 -322 -9z m1542 -2586 c3 -5 1 -10 -4 -10 -6 0
-11 5 -11 10 0 6 2 10 4 10 3 0 8 -4 11 -10z"/>
<path d="M15915 22793 c-34 -8 -82 -32 -96 -49 -7 -9 -23 -20 -35 -24 -37 -14
-83 -109 -94 -191 -12 -94 -6 -413 20 -1204 5 -154 12 -395 15 -535 3 -140 10
-390 15 -555 5 -165 12 -415 15 -555 3 -140 10 -349 15 -465 26 -554 41 -908
50 -1205 10 -337 39 -970 45 -1005 2 -11 4 -41 4 -66 1 -25 7 -53 14 -63 13
-17 14 -17 31 -1 27 27 76 61 127 88 25 14 117 72 205 129 87 58 197 129 244
158 83 53 148 100 396 292 156 120 226 176 338 268 50 41 114 93 141 115 48
38 303 259 510 441 199 175 345 314 632 601 381 381 405 412 384 489 -17 62
-217 320 -471 605 -47 53 -153 174 -236 270 -83 96 -201 230 -260 299 -60 69
-130 152 -155 185 -48 62 -302 352 -488 556 -58 64 -131 145 -161 181 -53 62
-378 428 -389 438 -3 3 -40 46 -80 95 -41 50 -80 95 -85 100 -23 22 -184 203
-226 255 -25 30 -54 64 -65 76 -11 13 -56 63 -100 112 -84 93 -186 173 -220
171 -11 -1 -29 -3 -40 -6z"/>
<path d="M15033 22357 c-17 -23 -36 -53 -41 -67 -9 -22 -66 -123 -138 -245
-14 -22 -60 -110 -103 -195 -87 -172 -133 -262 -333 -650 -136 -266 -196 -385
-392 -775 -226 -452 -388 -770 -396 -780 -5 -6 -156 -304 -336 -661 -180 -357
-343 -678 -364 -714 -21 -36 -64 -121 -96 -189 -61 -129 -141 -290 -476 -956
-160 -317 -491 -987 -554 -1120 -25 -54 -64 -165 -64 -183 0 -28 40 -59 100
-77 30 -9 65 -21 78 -26 12 -5 82 -18 155 -30 201 -32 547 -30 842 4 441 52
676 106 1145 260 259 85 463 171 752 314 263 130 351 179 396 222 22 22 23 25
21 254 -1 128 -5 342 -9 477 -5 135 -13 542 -19 905 -18 1116 -22 1303 -31
1505 -5 107 -11 519 -15 915 -7 916 -14 1464 -20 1540 -2 33 -7 103 -10 155
-7 108 -13 142 -29 152 -20 14 -31 8 -63 -35z"/>
<path d="M11925 20820 c-4 -6 -12 -7 -18 -4 -9 5 -9 4 0 -6 13 -14 43 -7 43
10 0 13 -17 13 -25 0z"/>
<path d="M11860 20786 c0 -8 -6 -17 -12 -19 -8 -4 -9 -6 -2 -6 18 -1 37 26 24
34 -5 3 -10 0 -10 -9z"/>
<path d="M11731 20654 c-1 -18 26 -37 34 -24 3 5 0 10 -9 10 -8 0 -17 6 -19
13 -4 7 -6 8 -6 1z"/>
<path d="M11660 20630 c-8 -5 -11 -12 -8 -16 4 -3 14 1 23 10 18 17 9 21 -15
6z"/>
<path d="M10790 19880 c0 -5 5 -10 11 -10 5 0 7 5 4 10 -3 6 -8 10 -11 10 -2
0 -4 -4 -4 -10z"/>
</g>
</svg>
